Coordinates
version=1
nRows=30
nColumns=21
inDegrees=yes

Units are S.I. units (second, meters, Newtons, ...)
If the header above contains a line with 'inDegrees', this indicates whether rotational values are in degrees (yes) or radians (no).

endheader
time	sternoclavicular_r2	sternoclavicular_r3	unrotscap_r3	unrotscap_r2	acromioclavicular_r2	acromioclavicular_r3	acromioclavicular_r1	unrothum_r1	unrothum_r3	unrothum_r2	elv_angle	shoulder_elev	shoulder1_r2	shoulder_rot	elbow_flexion	pro_sup	deviation	flexion	wrist_hand_r1	wrist_hand_r3
      1.00502513	    -10.91587869	      4.62345101	     -4.62345101	     10.91587869	     -2.21024339	     17.86240961	      8.02903018	     -8.02903018	    -17.86240961	      2.21024339	    127.25357378	     45.10683565	   -127.25357378	     19.93462246	      0.78850066	      0.00000000	      0.00000000	     -0.00000000	     -0.00000000	      0.00000000
      1.02512563	    -10.95356510	      4.63941320	     -4.63941320	     10.95356510	     -2.21787412	     17.92407849	      8.05674993	     -8.05674993	    -17.92407849	      2.21787412	    127.34254782	     45.26256427	   -127.34254782	     19.93347429	      0.77756001	      0.00000000	      0.00000000	     -0.00000000	     -0.00000000	      0.00000000
      1.04522613	    -10.99210837	      4.65573831	     -4.65573831	     10.99210837	     -2.22567835	     17.98714951	      8.08509991	     -8.08509991	    -17.98714951	      2.22567835	    127.43251828	     45.42183360	   -127.43251828	     19.93229509	      0.76965225	      0.00000000	      0.00000000	     -0.00000000	     -0.00000000	      0.00000000
      1.06532663	    -11.03173969	      4.67252426	     -4.67252426	     11.03173969	     -2.23370288	     18.05200099	      8.11425021	     -8.11425021	    -18.05200099	      2.23370288	    127.52465554	     45.58559902	   -127.52465554	     19.93109945	      0.76173951	      0.00000000	      0.00000000	     -0.00000000	     -0.00000000	      0.00000000
      1.08542714	    -11.07207315	      4.68960761	     -4.68960761	     11.07207315	     -2.24186959	     18.11800142	      8.14391695	     -8.14391695	    -18.11800142	      2.24186959	    127.62000376	     45.75226582	   -127.62000376	     19.93011093	      0.75673429	      0.00000000	      0.00000000	     -0.00000000	     -0.00000000	      0.00000000
      1.10552764	    -11.11262243	      4.70678237	     -4.70678237	     11.11262243	     -2.25007999	     18.18435503	      8.17374244	     -8.17374244	    -18.18435503	      2.25007999	    127.72042321	     45.91982448	   -127.72042321	     19.92929428	      0.75936485	      0.00000000	      0.00000000	     -0.00000000	     -0.00000000	      0.00000000
      1.12562814	    -11.15557407	      4.72497466	     -4.72497466	     11.15557407	     -2.25877683	     18.25463978	      8.20533495	     -8.20533495	    -18.25463978	      2.25877683	    127.82121498	     46.09731019	   -127.82121498	     19.92795267	      0.75082429	      0.00000000	      0.00000000	     -0.00000000	     -0.00000000	      0.00000000
      1.14572864	    -11.20124631	      4.74431927	     -4.74431927	     11.20124631	     -2.26802453	     18.32937643	      8.23892856	     -8.23892856	    -18.32937643	      2.26802453	    127.91653535	     46.28603802	   -127.91653535	     19.92634678	      0.73204390	      0.00000000	      0.00000000	     -0.00000000	     -0.00000000	      0.00000000
      1.16582915	    -11.24756786	      4.76393889	     -4.76393889	     11.24756786	     -2.27740370	     18.40517559	      8.27299976	     -8.27299976	    -18.40517559	      2.27740370	    128.01632833	     46.47744895	   -128.01632833	     19.92434568	      0.71565684	      0.00000000	      0.00000000	     -0.00000000	     -0.00000000	      0.00000000
      1.18592965	    -11.29535499	      4.78417926	     -4.78417926	     11.29535499	     -2.28707962	     18.48337299	      8.30814895	     -8.30814895	    -18.48337299	      2.28707962	    128.11706420	     46.67491599	   -128.11706420	     19.92204731	      0.69613020	      0.00000000	      0.00000000	     -0.00000000	     -0.00000000	      0.00000000
      1.20603015	    -11.34438639	      4.80494665	     -4.80494665	     11.34438639	     -2.29700748	     18.56360649	      8.34421336	     -8.34421336	    -18.56360649	      2.29700748	    128.21945984	     46.87752466	   -128.21945984	     19.91956054	      0.67513353	      0.00000000	      0.00000000	     -0.00000000	     -0.00000000	      0.00000000
      1.22613065	    -11.39459284	      4.82621173	     -4.82621173	     11.39459284	     -2.30717327	     18.64576277	      8.38114204	     -8.38114204	    -18.64576277	      2.30717327	    128.32384533	     47.08498884	   -128.32384533	     19.91690510	      0.65320829	      0.00000000	      0.00000000	     -0.00000000	     -0.00000000	      0.00000000
      1.24623116	    -11.44169267	      4.84616099	     -4.84616099	     11.44169267	     -2.31671002	     18.72283549	      8.41578570	     -8.41578570	    -18.72283549	      2.31671002	    128.44465814	     47.27961579	   -128.44465814	     19.91729105	      0.66934587	      0.00000000	      0.00000000	     -0.00000000	     -0.00000000	      0.00000000
      1.26633166	    -11.49300668	      4.86789519	     -4.86789519	     11.49300668	     -2.32710007	     18.80680418	      8.45352904	     -8.45352904	    -18.80680418	      2.32710007	    128.55653711	     47.49165671	   -128.55653711	     19.91558965	      0.65852778	      0.00000000	      0.00000000	     -0.00000000	     -0.00000000	      0.00000000
      1.28643216	    -11.54499084	      4.88991323	     -4.88991323	     11.54499084	     -2.33762580	     18.89186946	      8.49176531	     -8.49176531	    -18.89186946	      2.33762580	    128.67110489	     47.70646681	   -128.67110489	     19.91308128	      0.65233950	      0.00000000	      0.00000000	     -0.00000000	     -0.00000000	      0.00000000
      1.30653266	    -11.59861996	      4.91262799	     -4.91262799	     11.59861996	     -2.34848461	     18.97962650	      8.53121149	     -8.53121149	    -18.97962650	      2.34848461	    128.78619911	     47.92807421	   -128.78619911	     19.91109938	      0.64101247	      0.00000000	      0.00000000	     -0.00000000	     -0.00000000	      0.00000000
      1.32663317	    -11.65555166	      4.93674157	     -4.93674157	     11.65555166	     -2.36001212	     19.07278780	      8.57308685	     -8.57308685	    -19.07278780	      2.36001212	    128.89861094	     48.16332868	   -128.89861094	     19.90903529	      0.61013315	      0.00000000	      0.00000000	     -0.00000000	     -0.00000000	      0.00000000
      1.34673367	    -11.71057529	      4.96004698	     -4.96004698	     11.71057529	     -2.37115329	     19.16282678	      8.61355876	     -8.61355876	    -19.16282678	      2.37115329	    129.02427051	     48.39069854	   -129.02427051	     19.90735245	      0.60883079	      0.00000000	      0.00000000	     -0.00000000	     -0.00000000	      0.00000000
      1.36683417	    -11.76718803	      4.98402547	     -4.98402547	     11.76718803	     -2.38261621	     19.25546613	      8.65519950	     -8.65519950	    -19.25546613	      2.38261621	    129.14132608	     48.62463493	   -129.14132608	     19.90538863	      0.59625191	      0.00000000	      0.00000000	     -0.00000000	     -0.00000000	      0.00000000
      1.38693467	    -11.82621740	      5.00902752	     -5.00902752	     11.82621740	     -2.39456846	     19.35205999	      8.69861778	     -8.69861778	    -19.35205999	      2.39456846	    129.25799767	     48.86855741	   -129.25799767	     19.90339668	      0.57750998	      0.00000000	      0.00000000	     -0.00000000	     -0.00000000	      0.00000000
      1.40703518	    -11.88722345	      5.03486681	     -5.03486681	     11.88722345	     -2.40692094	     19.45188841	      8.74348997	     -8.74348997	    -19.45188841	      2.40692094	    129.37208574	     49.12064795	   -129.37208574	     19.90132192	      0.54614605	      0.00000000	      0.00000000	     -0.00000000	     -0.00000000	      0.00000000
      1.42713568	    -11.94735681	      5.06033646	     -5.06033646	     11.94735681	     -2.41909673	     19.55028881	      8.78772027	     -8.78772027	    -19.55028881	      2.41909673	    129.49923228	     49.36913237	   -129.49923228	     19.89844714	      0.53931843	      0.00000000	      0.00000000	     -0.00000000	     -0.00000000	      0.00000000
      1.44723618	    -12.00898226	      5.08643809	     -5.08643809	     12.00898226	     -2.43157463	     19.65113080	      8.83304805	     -8.83304805	    -19.65113080	      2.43157463	    129.61804999	     49.62378240	   -129.61804999	     19.89293698	      0.52451792	      0.00000000	      0.00000000	     -0.00000000	     -0.00000000	      0.00000000
      1.46733668	    -12.07316667	      5.11362358	     -5.11362358	     12.07316667	     -2.44457066	     19.75616021	      8.88025805	     -8.88025805	    -19.75616021	      2.44457066	    129.72679402	     49.88900664	   -129.72679402	     19.89452597	      0.49313416	      0.00000000	      0.00000000	     -0.00000000	     -0.00000000	      0.00000000
      1.48743719	    -12.14109950	      5.14239672	     -5.14239672	     12.14109950	     -2.45832568	     19.86732341	      8.93022514	     -8.93022514	    -19.86732341	      2.45832568	    129.82363559	     50.16972019	   -129.82363559	     19.89189586	      0.44153972	      0.00000000	      0.00000000	     -0.00000000	     -0.00000000	      0.00000000
      1.50753769	    -12.21207475	      5.17245848	     -5.17245848	     12.21207475	     -2.47269672	     19.98346513	      8.98243005	     -8.98243005	    -19.98346513	      2.47269672	    129.89371657	     50.46300568	   -129.89371657	     19.88999757	      0.36628238	      0.00000000	      0.00000000	     -0.00000000	     -0.00000000	      0.00000000
      1.52763819	    -12.28574325	      5.20366099	     -5.20366099	     12.28574325	     -2.48761310	     20.10401402	      9.03661594	     -9.03661594	    -20.10401402	      2.48761310	    129.93487933	     50.76742032	   -129.93487933	     19.88687753	      0.27395334	      0.00000000	      0.00000000	     -0.00000000	     -0.00000000	      0.00000000
      1.54773869	    -12.35857843	      5.23451053	     -5.23451053	     12.35857843	     -2.50236074	     20.22319928	      9.09018890	     -9.09018890	    -20.22319928	      2.50236074	    129.95695290	     51.06839147	   -129.95695290	     19.88684572	      0.19943201	      0.00000000	      0.00000000	     -0.00000000	     -0.00000000	      0.00000000
      1.56783920	    -12.42951265	      5.26455492	     -5.26455492	     12.42951265	     -2.51672348	     20.33927386	      9.14236362	     -9.14236362	    -20.33927386	      2.51672348	    129.96917698	     51.36150741	   -129.96917698	     19.88605153	      0.14502804	      0.00000000	      0.00000000	     -0.00000000	     -0.00000000	      0.00000000
      1.58793970	    -12.50019786	      5.29449384	     -5.29449384	     12.50019786	     -2.53103579	     20.45494098	      9.19435520	     -9.19435520	    -20.45494098	      2.53103579	    129.97664613	     51.65359441	   -129.97664613	     19.88117228	      0.10755030	      0.00000000	      0.00000000	     -0.00000000	     -0.00000000	      0.00000000
